<svg width="19" height="19" viewBox="0 0 19 19" fill="none" xmlns="http://www.w3.org/2000/svg">
<path d="M6.43184 15.5581H5.99725C2.52058 15.5581 0.78225 14.6889 0.78225 10.3431V5.99725C0.78225 2.52058 2.52058 0.78225 5.99725 0.78225H12.9506C16.4273 0.78225 18.1656 2.52058 18.1656 5.99725V10.3431C18.1656 13.8198 16.4273 15.5581 12.9506 15.5581H12.516C12.2466 15.5581 11.9858 15.6885 11.8207 15.9058L10.5169 17.6441C9.94327 18.409 9.00457 18.409 8.43092 17.6441L7.12717 15.9058C6.9881 15.7145 6.66651 15.5581 6.43184 15.5581Z" stroke="#F8F8F8" stroke-width="1.5" stroke-miterlimit="10" stroke-linecap="round" stroke-linejoin="round"/>
<path d="M12.9475 8.60476H12.9553" stroke="#F8F8F8" stroke-width="2" stroke-linecap="round" stroke-linejoin="round"/>
<path d="M9.47 8.60476H9.4778" stroke="#F8F8F8" stroke-width="2" stroke-linecap="round" stroke-linejoin="round"/>
<path d="M5.99246 8.60476H6.00026" stroke="#F8F8F8" stroke-width="2" stroke-linecap="round" stroke-linejoin="round"/>
</svg>
