<svg width="19" height="19" viewBox="0 0 19 19" fill="none" xmlns="http://www.w3.org/2000/svg">
<path d="M6.88531 18.2156H12.1147C16.4725 18.2156 18.2156 16.4725 18.2156 12.1147V6.88531C18.2156 2.52752 16.4725 0.784403 12.1147 0.784403H6.88531C2.52752 0.784403 0.784403 2.52752 0.784403 6.88531V12.1147C0.784403 16.4725 2.52752 18.2156 6.88531 18.2156Z" stroke="#F8F8F8" stroke-width="1.5" stroke-linecap="round" stroke-linejoin="round"/>
<path d="M12.6114 15.1651V11.766" stroke="#F8F8F8" stroke-width="1.5" stroke-miterlimit="10" stroke-linecap="round" stroke-linejoin="round"/>
<path d="M12.6114 5.5344V3.83486" stroke="#F8F8F8" stroke-width="1.5" stroke-miterlimit="10" stroke-linecap="round" stroke-linejoin="round"/>
<path d="M12.6114 10.0665C13.863 10.0665 14.8775 9.05196 14.8775 7.80045C14.8775 6.54894 13.863 5.5344 12.6114 5.5344C11.3599 5.5344 10.3454 6.54894 10.3454 7.80045C10.3454 9.05196 11.3599 10.0665 12.6114 10.0665Z" stroke="#F8F8F8" stroke-width="1.5" stroke-miterlimit="10" stroke-linecap="round" stroke-linejoin="round"/>
<path d="M6.38853 15.1651V13.4656" stroke="#F8F8F8" stroke-width="1.5" stroke-miterlimit="10" stroke-linecap="round" stroke-linejoin="round"/>
<path d="M6.38853 7.23394V3.83486" stroke="#F8F8F8" stroke-width="1.5" stroke-miterlimit="10" stroke-linecap="round" stroke-linejoin="round"/>
<path d="M6.38851 13.4656C7.64001 13.4656 8.65456 12.451 8.65456 11.1995C8.65456 9.94802 7.64001 8.93348 6.38851 8.93348C5.137 8.93348 4.12246 9.94802 4.12246 11.1995C4.12246 12.451 5.137 13.4656 6.38851 13.4656Z" stroke="#F8F8F8" stroke-width="1.5" stroke-miterlimit="10" stroke-linecap="round" stroke-linejoin="round"/>
</svg>
