<svg width="17" height="17" viewBox="0 0 17 17" fill="none" xmlns="http://www.w3.org/2000/svg">
<path d="M8.5 12.3636V14.2027C8.5 15.6477 7.92045 16.2273 6.46773 16.2273H2.79727C1.35227 16.2273 0.772727 15.6477 0.772727 14.2027V10.5323C0.772727 9.07955 1.35227 8.5 2.79727 8.5H4.63636V10.3314C4.63636 11.7841 5.21591 12.3636 6.66091 12.3636H8.5Z" stroke="#131313" stroke-width="1.5" stroke-linecap="round" stroke-linejoin="round"/>
<path d="M12.3636 8.5V10.3314C12.3636 11.7841 11.7841 12.3636 10.3314 12.3636H6.66091C5.21591 12.3636 4.63636 11.7841 4.63636 10.3314V6.66091C4.63636 5.21591 5.21591 4.63636 6.66091 4.63636H8.5V6.46773C8.5 7.92045 9.07955 8.5 10.5245 8.5H12.3636Z" stroke="#131313" stroke-width="1.5" stroke-linecap="round" stroke-linejoin="round"/>
<path d="M16.2273 2.79727V6.46773C16.2273 7.92045 15.6477 8.5 14.195 8.5H10.5245C9.07955 8.5 8.5 7.92045 8.5 6.46773V2.79727C8.5 1.35227 9.07955 0.772727 10.5245 0.772727H14.195C15.6477 0.772727 16.2273 1.35227 16.2273 2.79727Z" stroke="#131313" stroke-width="1.5" stroke-linecap="round" stroke-linejoin="round"/>
</svg>
