<svg width="17" height="19" viewBox="0 0 17 19" fill="none" xmlns="http://www.w3.org/2000/svg">
<path d="M6.78283 17.9444H10.2172C14.5101 17.9444 16.2273 16.2273 16.2273 11.9343V6.78283C16.2273 2.4899 14.5101 0.772727 10.2172 0.772727H6.78283C2.4899 0.772727 0.772727 2.4899 0.772727 6.78283V11.9343C0.772727 16.2273 2.4899 17.9444 6.78283 17.9444Z" stroke="#F8F8F8" stroke-width="1.5" stroke-linecap="round" stroke-linejoin="round"/>
<path d="M12.3636 5.56363V6.42222C12.3636 7.12626 11.7884 7.71009 11.0758 7.71009H5.92424C5.2202 7.71009 4.63636 7.13484 4.63636 6.42222V5.56363C4.63636 4.85959 5.21162 4.27575 5.92424 4.27575H11.0758C11.7884 4.27575 12.3636 4.851 12.3636 5.56363Z" stroke="#F8F8F8" stroke-width="1.5" stroke-linecap="round" stroke-linejoin="round"/>
<path d="M5.18253 11.0758H5.19245" stroke="#F8F8F8" stroke-width="2" stroke-linecap="round" stroke-linejoin="round"/>
<path d="M8.49592 11.0758H8.50584" stroke="#F8F8F8" stroke-width="2" stroke-linecap="round" stroke-linejoin="round"/>
<path d="M11.8093 11.0758H11.8192" stroke="#F8F8F8" stroke-width="2" stroke-linecap="round" stroke-linejoin="round"/>
<path d="M5.18253 14.0808H5.19245" stroke="#F8F8F8" stroke-width="2" stroke-linecap="round" stroke-linejoin="round"/>
<path d="M8.49592 14.0808H8.50584" stroke="#F8F8F8" stroke-width="2" stroke-linecap="round" stroke-linejoin="round"/>
<path d="M11.8093 14.0808H11.8192" stroke="#F8F8F8" stroke-width="2" stroke-linecap="round" stroke-linejoin="round"/>
</svg>
