<svg width="15" height="17" viewBox="0 0 15 17" fill="none" xmlns="http://www.w3.org/2000/svg">
<path d="M6 15.75H9C12.75 15.75 14.25 14.25 14.25 10.5V6C14.25 2.25 12.75 0.75 9 0.75H6C2.25 0.75 0.75 2.25 0.75 6V10.5C0.75 14.25 2.25 15.75 6 15.75Z" stroke="#131313" stroke-width="1.5" stroke-linecap="round" stroke-linejoin="round"/>
<path d="M10.875 4.935V5.685C10.875 6.3 10.3725 6.81 9.75 6.81H5.25C4.635 6.81 4.125 6.3075 4.125 5.685V4.935C4.125 4.32 4.6275 3.81 5.25 3.81H9.75C10.3725 3.81 10.875 4.3125 10.875 4.935Z" stroke="#131313" stroke-width="1.5" stroke-linecap="round" stroke-linejoin="round"/>
<path d="M4.60209 9.75H4.61075" stroke="#131313" stroke-width="2" stroke-linecap="round" stroke-linejoin="round"/>
<path d="M7.49644 9.75H7.5051" stroke="#131313" stroke-width="2" stroke-linecap="round" stroke-linejoin="round"/>
<path d="M10.3907 9.75H10.3994" stroke="#131313" stroke-width="2" stroke-linecap="round" stroke-linejoin="round"/>
<path d="M4.60209 12.375H4.61075" stroke="#131313" stroke-width="2" stroke-linecap="round" stroke-linejoin="round"/>
<path d="M7.49644 12.375H7.5051" stroke="#131313" stroke-width="2" stroke-linecap="round" stroke-linejoin="round"/>
<path d="M10.3907 12.375H10.3994" stroke="#131313" stroke-width="2" stroke-linecap="round" stroke-linejoin="round"/>
</svg>
