<svg width="17" height="19" viewBox="0 0 17 19" fill="none" xmlns="http://www.w3.org/2000/svg">
<path d="M8.48075 4.62234V7.5048" stroke="#131313" stroke-width="1.5" stroke-miterlimit="10" stroke-linecap="round"/>
<path d="M8.49807 0.779044C5.31265 0.779044 2.73315 3.35854 2.73315 6.54397V8.36174C2.73315 8.95035 2.49078 9.83326 2.18782 10.3353L1.0885 12.1704C0.41333 13.3043 0.880756 14.5681 2.12723 14.9836C6.26481 16.3599 10.74 16.3599 14.8776 14.9836C16.0461 14.5941 16.5482 13.2264 15.9163 12.1704L14.817 10.3353C14.514 9.83326 14.2717 8.94169 14.2717 8.36174V6.54397C14.263 3.37586 11.6662 0.779044 8.49807 0.779044Z" stroke="#131313" stroke-width="1.5" stroke-miterlimit="10" stroke-linecap="round"/>
<path d="M11.3632 15.3385C11.3632 16.9226 10.0648 18.221 8.48076 18.221C7.69306 18.221 6.96595 17.892 6.44659 17.3727C5.92723 16.8533 5.5983 16.1262 5.5983 15.3385" stroke="#131313" stroke-width="1.5" stroke-miterlimit="10"/>
</svg>
